<svg width="72" height="50" viewBox="0 0 72 50" fill="none" xmlns="http://www.w3.org/2000/svg">
<path d="M22.186 42.392C23.594 42.392 24.682 42.7547 25.45 43.48C26.2607 44.1627 26.666 45.1227 26.666 46.36C26.666 46.7013 26.6233 47.0427 26.538 47.384C26.4953 47.768 26.4313 48.088 26.346 48.344C25.7913 48.2587 25.1727 48.1733 24.49 48.088C23.8073 48.0453 22.9967 48.024 22.058 48.024C20.778 48.024 19.4553 48.1093 18.09 48.28C16.7673 48.4507 15.466 48.6213 14.186 48.792C12.906 49.0053 11.6687 49.1973 10.474 49.368C9.27933 49.5387 8.17 49.624 7.146 49.624C5.482 49.624 4.05267 49.304 2.858 48.664C1.66333 48.024 0.852667 47.1493 0.426 46.04C0.596667 45.8693 1.002 45.6987 1.642 45.528C2.32467 45.3147 3.13533 45.1013 4.074 44.888C5.05533 44.632 6.14333 44.3973 7.338 44.184C8.57533 43.9707 9.834 43.7573 11.114 43.544C11.7113 40.984 12.3727 38.36 13.098 35.672C13.866 32.9413 14.634 30.232 15.402 27.544C16.2127 24.8133 17.0447 22.1253 17.898 19.48C18.7513 16.8347 19.6047 14.2747 20.458 11.8C19.0073 12.4827 17.4927 13.4 15.914 14.552C14.378 15.6613 13.0553 16.7067 11.946 17.688C11.4767 17.432 11.242 16.856 11.242 15.96C12.8207 13.8267 14.4207 11.928 16.042 10.264C17.6633 8.6 19.4553 6.82933 21.418 4.952C21.8873 4.48266 22.442 3.82133 23.082 2.968C23.7647 2.11467 24.3407 1.26133 24.81 0.407997C25.4073 0.578664 26.154 0.770664 27.05 0.983997C27.946 1.15466 28.8207 1.38933 29.674 1.688C30.57 1.944 31.3593 2.264 32.042 2.648C32.7673 3.032 33.258 3.48 33.514 3.992C32.9593 4.46133 32.4473 4.952 31.978 5.464C31.5513 5.976 31.1673 6.53067 30.826 7.128C29.9727 8.664 28.97 10.8187 27.818 13.592C26.7087 16.3227 25.5567 19.3307 24.362 22.616C23.21 25.8587 22.0367 29.2507 20.842 32.792C19.69 36.2907 18.6447 39.576 17.706 42.648C18.602 42.5627 19.4127 42.4987 20.138 42.456C20.906 42.4133 21.5887 42.392 22.186 42.392ZM37.5125 22.616C38.0672 21.08 38.8138 19.3093 39.7525 17.304C40.7338 15.2987 41.7365 13.3147 42.7605 11.352C43.8272 9.34666 44.8725 7.46933 45.8965 5.72C46.9205 3.97066 47.7952 2.60533 48.5205 1.624C49.3738 1.96533 50.3125 2.43466 51.3365 3.032C52.3605 3.58666 53.2992 4.26933 54.1525 5.08C54.7498 5.03733 55.5818 4.93067 56.6485 4.76C57.7578 4.54667 58.8885 4.33333 60.0405 4.12C61.1925 3.864 62.2805 3.62933 63.3045 3.416C64.3712 3.16 65.1605 2.94666 65.6725 2.776C67.1232 3.45867 68.2538 4.48267 69.0645 5.848C69.8752 7.21333 70.6218 8.87733 71.3045 10.84C68.7018 10.1573 65.9285 9.624 62.9845 9.24C60.0832 8.856 57.2458 8.664 54.4725 8.664C53.5765 9.432 52.7018 10.3493 51.8485 11.416C51.0378 12.4827 50.2698 13.592 49.5445 14.744C48.8192 15.8533 48.1578 16.92 47.5605 17.944C47.0058 18.968 46.5365 19.8427 46.1525 20.568C47.6458 19.9707 49.1818 19.672 50.7605 19.672C52.2112 19.672 53.5338 19.9493 54.7285 20.504C55.9232 21.0587 56.9472 21.8267 57.8005 22.808C58.6538 23.7893 59.3152 24.9413 59.7845 26.264C60.2538 27.544 60.4885 28.952 60.4885 30.488C60.4885 32.8347 59.7632 35.1387 58.3125 37.4C56.8618 39.6187 54.9845 41.6027 52.6805 43.352C50.3765 45.1013 47.7952 46.5093 44.9365 47.576C42.1205 48.6853 39.3045 49.2613 36.4885 49.304C35.4645 49.0907 34.4192 48.4933 33.3525 47.512C32.2858 46.5307 31.5178 45.1867 31.0485 43.48C32.6272 43.4373 34.3338 43.2453 36.1685 42.904C38.0032 42.52 39.8378 41.9867 41.6725 41.304C43.5498 40.6213 45.3418 39.8107 47.0485 38.872C48.7552 37.8907 50.2698 36.824 51.5925 35.672C52.9152 34.52 53.9605 33.2827 54.7285 31.96C55.5392 30.5947 55.9445 29.1653 55.9445 27.672C55.9445 25.0693 54.4725 23.768 51.5285 23.768C50.1632 23.768 48.7552 23.9813 47.3045 24.408C45.8538 24.8347 44.4885 25.4747 43.2085 26.328C42.2698 25.9867 41.2245 25.496 40.0725 24.856C38.9632 24.216 38.1098 23.4693 37.5125 22.616Z" fill="black"/>
</svg>
