<svg width="59" height="20" viewBox="0 0 59 20" fill="none" xmlns="http://www.w3.org/2000/svg">
<path d="M13.8316 4.608C13.8316 5.376 13.6556 6.12 13.3036 6.84C12.9676 7.56 12.4956 8.28 11.8876 9C11.2796 9.72 10.5516 10.464 9.70356 11.232C8.87156 11.984 7.96756 12.784 6.99156 13.632C6.54356 14.016 6.15956 14.36 5.83956 14.664C5.53556 14.968 5.27156 15.264 5.04756 15.552C4.82356 15.824 4.62356 16.096 4.44756 16.368C4.28756 16.624 4.13556 16.904 3.99156 17.208C5.27156 17.128 6.54356 16.84 7.80756 16.344C9.08756 15.848 10.1836 15.2 11.0956 14.4C11.1596 14.48 11.2396 14.608 11.3356 14.784C11.4316 14.944 11.5116 15.136 11.5756 15.36C11.6556 15.568 11.7196 15.8 11.7676 16.056C11.8316 16.296 11.8636 16.536 11.8636 16.776C11.8636 17.176 11.7756 17.52 11.5996 17.808C11.4396 17.984 11.2076 18.12 10.9036 18.216C10.6156 18.312 10.2716 18.384 9.87156 18.432C9.47156 18.48 9.03956 18.512 8.57556 18.528C8.11156 18.544 7.63156 18.552 7.13556 18.552C6.65556 18.552 6.17556 18.56 5.69556 18.576C5.21556 18.608 4.75156 18.648 4.30356 18.696C3.87156 18.76 3.46356 18.848 3.07956 18.96C2.71156 19.072 2.39956 19.224 2.14356 19.416C1.75956 19.24 1.40756 18.976 1.08756 18.624C0.783563 18.288 0.567563 17.92 0.439563 17.52C0.535563 17.056 0.703563 16.624 0.943563 16.224C1.18356 15.824 1.50356 15.408 1.90356 14.976C2.31956 14.544 2.83156 14.08 3.43956 13.584C4.04756 13.072 4.76756 12.472 5.59956 11.784C6.52756 11.016 7.36756 10.296 8.11956 9.624C8.87156 8.952 9.50356 8.312 10.0156 7.704C10.5436 7.08 10.9436 6.472 11.2156 5.88C11.5036 5.272 11.6476 4.656 11.6476 4.032C11.6476 3.248 11.4476 2.632 11.0476 2.184C10.6476 1.736 10.1196 1.512 9.46356 1.512C8.99956 1.512 8.55156 1.624 8.11956 1.848C7.68756 2.056 7.30356 2.352 6.96756 2.736C6.63156 3.104 6.35956 3.536 6.15156 4.032C5.94356 4.512 5.83956 5.024 5.83956 5.568C5.83956 5.968 5.89556 6.328 6.00756 6.648C6.13556 6.952 6.32756 7.264 6.58356 7.584C6.35956 7.632 6.15156 7.656 5.95956 7.656C5.57556 7.656 5.22356 7.592 4.90356 7.464C4.58356 7.336 4.30356 7.16 4.06356 6.936C3.83956 6.712 3.66356 6.448 3.53556 6.144C3.40756 5.84 3.34356 5.504 3.34356 5.136C3.34356 4.528 3.51956 3.952 3.87156 3.408C4.22356 2.848 4.68756 2.36 5.26356 1.944C5.83956 1.528 6.48756 1.2 7.20756 0.959999C7.94356 0.704 8.68756 0.576 9.43956 0.576C10.0956 0.576 10.6956 0.671999 11.2396 0.863999C11.7836 1.056 12.2476 1.336 12.6316 1.704C13.0156 2.056 13.3116 2.48 13.5196 2.976C13.7276 3.472 13.8316 4.016 13.8316 4.608ZM19.0504 18.864C18.4744 18.752 17.9384 18.576 17.4424 18.336C16.9624 18.112 16.5464 17.8 16.1944 17.4C15.8584 16.984 15.5864 16.48 15.3784 15.888C15.1864 15.28 15.0904 14.544 15.0904 13.68C15.0904 12.704 15.2264 11.696 15.4984 10.656C15.7704 9.616 16.1464 8.608 16.6264 7.632C17.1224 6.64 17.6984 5.704 18.3544 4.824C19.0264 3.928 19.7544 3.152 20.5384 2.496C21.3224 1.824 22.1464 1.296 23.0104 0.912C23.8904 0.511999 24.7784 0.311999 25.6744 0.311999C26.3464 0.311999 26.9224 0.439999 27.4024 0.696C27.8984 0.935999 28.3064 1.28 28.6264 1.728C28.9624 2.16 29.2104 2.688 29.3704 3.312C29.5304 3.92 29.6104 4.584 29.6104 5.304C29.6104 6.248 29.4904 7.24 29.2504 8.28C29.0264 9.32 28.6984 10.336 28.2664 11.328C27.8344 12.32 27.3064 13.272 26.6824 14.184C26.0744 15.08 25.3784 15.872 24.5944 16.56C23.8104 17.248 22.9544 17.8 22.0264 18.216C21.0984 18.632 20.1064 18.848 19.0504 18.864ZM18.0904 14.664C18.0904 15.752 18.2824 16.52 18.6664 16.968C19.0504 17.416 19.6104 17.704 20.3464 17.832C21.0664 17.8 21.7464 17.528 22.3864 17.016C23.0424 16.504 23.6424 15.856 24.1864 15.072C24.7304 14.272 25.2184 13.392 25.6504 12.432C26.0984 11.456 26.4744 10.488 26.7784 9.528C27.0824 8.568 27.3144 7.664 27.4744 6.816C27.6344 5.952 27.7144 5.24 27.7144 4.68C27.7144 3.8 27.6104 3.088 27.4024 2.544C27.2104 1.984 26.8824 1.648 26.4184 1.536C25.6824 1.632 24.9624 1.928 24.2584 2.424C23.5704 2.904 22.9144 3.512 22.2904 4.248C21.6824 4.984 21.1224 5.816 20.6104 6.744C20.0984 7.656 19.6504 8.584 19.2664 9.528C18.8984 10.472 18.6104 11.392 18.4024 12.288C18.1944 13.184 18.0904 13.976 18.0904 14.664ZM42.8941 4.608C42.8941 5.376 42.7181 6.12 42.3661 6.84C42.0301 7.56 41.5581 8.28 40.9501 9C40.3421 9.72 39.6141 10.464 38.7661 11.232C37.9341 11.984 37.0301 12.784 36.0541 13.632C35.6061 14.016 35.2221 14.36 34.9021 14.664C34.5981 14.968 34.3341 15.264 34.1101 15.552C33.8861 15.824 33.6861 16.096 33.5101 16.368C33.3501 16.624 33.1981 16.904 33.0541 17.208C34.3341 17.128 35.6061 16.84 36.8701 16.344C38.1501 15.848 39.2461 15.2 40.1581 14.4C40.2221 14.48 40.3021 14.608 40.3981 14.784C40.4941 14.944 40.5741 15.136 40.6381 15.36C40.7181 15.568 40.7821 15.8 40.8301 16.056C40.8941 16.296 40.9261 16.536 40.9261 16.776C40.9261 17.176 40.8381 17.52 40.6621 17.808C40.5021 17.984 40.2701 18.12 39.9661 18.216C39.6781 18.312 39.3341 18.384 38.9341 18.432C38.5341 18.48 38.1021 18.512 37.6381 18.528C37.1741 18.544 36.6941 18.552 36.1981 18.552C35.7181 18.552 35.2381 18.56 34.7581 18.576C34.2781 18.608 33.8141 18.648 33.3661 18.696C32.9341 18.76 32.5261 18.848 32.1421 18.96C31.7741 19.072 31.4621 19.224 31.2061 19.416C30.8221 19.24 30.4701 18.976 30.1501 18.624C29.8461 18.288 29.6301 17.92 29.5021 17.52C29.5981 17.056 29.7661 16.624 30.0061 16.224C30.2461 15.824 30.5661 15.408 30.9661 14.976C31.3821 14.544 31.8941 14.08 32.5021 13.584C33.1101 13.072 33.8301 12.472 34.6621 11.784C35.5901 11.016 36.4301 10.296 37.1821 9.624C37.9341 8.952 38.5661 8.312 39.0781 7.704C39.6061 7.08 40.0061 6.472 40.2781 5.88C40.5661 5.272 40.7101 4.656 40.7101 4.032C40.7101 3.248 40.5101 2.632 40.1101 2.184C39.7101 1.736 39.1821 1.512 38.5261 1.512C38.0621 1.512 37.6141 1.624 37.1821 1.848C36.7501 2.056 36.3661 2.352 36.0301 2.736C35.6941 3.104 35.4221 3.536 35.2141 4.032C35.0061 4.512 34.9021 5.024 34.9021 5.568C34.9021 5.968 34.9581 6.328 35.0701 6.648C35.1981 6.952 35.3901 7.264 35.6461 7.584C35.4221 7.632 35.2141 7.656 35.0221 7.656C34.6381 7.656 34.2861 7.592 33.9661 7.464C33.6461 7.336 33.3661 7.16 33.1261 6.936C32.9021 6.712 32.7261 6.448 32.5981 6.144C32.4701 5.84 32.4061 5.504 32.4061 5.136C32.4061 4.528 32.5821 3.952 32.9341 3.408C33.2861 2.848 33.7501 2.36 34.3261 1.944C34.9021 1.528 35.5501 1.2 36.2701 0.959999C37.0061 0.704 37.7501 0.576 38.5021 0.576C39.1581 0.576 39.7581 0.671999 40.3021 0.863999C40.8461 1.056 41.3101 1.336 41.6941 1.704C42.0781 2.056 42.3741 2.48 42.5821 2.976C42.7901 3.472 42.8941 4.016 42.8941 4.608ZM55.8409 1.488C56.3209 1.6 56.8089 1.784 57.3049 2.04C57.8169 2.28 58.2089 2.608 58.4809 3.024C57.6329 4.192 56.8409 5.4 56.1049 6.648C55.3689 7.896 54.6649 9.184 53.9929 10.512L55.1689 10.272C55.3129 10.432 55.3929 10.608 55.4089 10.8L53.5129 11.496C52.9369 12.68 52.4329 13.872 52.0009 15.072C51.5689 16.256 51.2169 17.48 50.9449 18.744C50.4649 18.728 50.0009 18.664 49.5529 18.552C49.1049 18.456 48.7129 18.224 48.3769 17.856C48.6649 16.896 48.9849 15.96 49.3369 15.048C49.6889 14.12 50.0729 13.192 50.4889 12.264C50.1849 12.296 49.8329 12.336 49.4329 12.384C49.0489 12.416 48.6969 12.432 48.3769 12.432C47.9449 12.432 47.4969 12.416 47.0329 12.384C46.5689 12.336 46.1209 12.256 45.6889 12.144C45.2569 12.016 44.8489 11.848 44.4649 11.64C44.0809 11.432 43.7449 11.152 43.4569 10.8C44.7209 9.36 45.8889 7.8 46.9609 6.12C48.0329 4.44 48.9769 2.72 49.7929 0.959999C50.3529 1.136 50.9049 1.352 51.4489 1.608C52.0089 1.864 52.5209 2.184 52.9849 2.568C52.4409 3.192 51.8569 3.872 51.2329 4.608C50.6249 5.328 50.0169 6.048 49.4089 6.768C48.8169 7.488 48.2569 8.176 47.7289 8.832C47.2169 9.488 46.7849 10.064 46.4329 10.56C46.8489 10.736 47.2729 10.864 47.7049 10.944C48.1529 11.008 48.6009 11.04 49.0489 11.04C49.3529 11.04 49.6889 11.032 50.0569 11.016C50.4409 11 50.7849 10.976 51.0889 10.944C51.8729 9.312 52.6569 7.72 53.4409 6.168C54.2249 4.6 55.0249 3.04 55.8409 1.488Z" fill="black"/>
</svg>
