<svg width="48" height="22" viewBox="0 0 48 22" fill="none" xmlns="http://www.w3.org/2000/svg">
<path d="M11.6662 0.263999C12.2742 0.263999 12.9062 0.375999 13.5622 0.599999C14.2182 0.823999 14.7942 1.112 15.2902 1.464C15.1302 2.28 14.9782 3.016 14.8342 3.672C14.7062 4.328 14.5862 4.928 14.4742 5.472C14.3622 6 14.2502 6.488 14.1382 6.936C14.0422 7.368 13.9462 7.776 13.8502 8.16C13.4662 9.6 13.0662 10.904 12.6502 12.072C12.2502 13.224 11.8182 14.264 11.3542 15.192C10.9062 16.12 10.4262 16.944 9.91419 17.664C9.41819 18.384 8.88219 19.016 8.30619 19.56C7.74619 20.088 7.18619 20.52 6.62619 20.856C6.06619 21.192 5.54619 21.408 5.06619 21.504C4.42619 21.504 3.83419 21.432 3.29019 21.288C2.74619 21.144 2.27419 20.944 1.87419 20.688C1.49019 20.448 1.18619 20.152 0.962188 19.8C0.754188 19.464 0.650188 19.088 0.650188 18.672C0.650188 18.224 0.762188 17.664 0.986188 16.992C1.21019 16.304 1.55419 15.496 2.01819 14.568C2.21019 14.584 2.43419 14.632 2.69019 14.712C2.94619 14.792 3.20219 14.888 3.45819 15C3.71419 15.112 3.94619 15.24 4.15419 15.384C4.36219 15.512 4.51419 15.64 4.61019 15.768C4.09819 16.296 3.68219 16.88 3.36219 17.52C3.04219 18.144 2.88219 18.688 2.88219 19.152C2.88219 19.424 2.93019 19.664 3.02619 19.872C3.13819 20.096 3.32219 20.296 3.57819 20.472C4.55419 20.104 5.50619 19.416 6.43419 18.408C7.36219 17.416 8.18619 16.176 8.90619 14.688C9.33819 13.808 9.73019 12.8 10.0822 11.664C10.4342 10.528 10.7302 9.392 10.9702 8.256C11.2262 7.104 11.4182 6.008 11.5462 4.968C11.6902 3.912 11.7622 3.024 11.7622 2.304C11.7622 2.192 11.7542 2.04 11.7382 1.848C11.7382 1.64 11.7302 1.432 11.7142 1.224C11.7142 0.999999 11.7062 0.799999 11.6902 0.623999C11.6742 0.447999 11.6662 0.328 11.6662 0.263999ZM21.1216 17.472C20.8176 17.216 20.6096 16.896 20.4976 16.512C20.4016 16.128 20.3536 15.8 20.3536 15.528C20.3536 15.192 20.3936 14.904 20.4736 14.664C20.4096 14.664 20.2656 14.792 20.0416 15.048C19.8176 15.304 19.5696 15.608 19.2976 15.96C19.0416 16.312 18.7856 16.656 18.5296 16.992C18.2736 17.328 18.0816 17.576 17.9536 17.736C17.7456 17.96 17.5456 18.136 17.3536 18.264C17.1776 18.392 17.0336 18.464 16.9216 18.48C16.6656 18.464 16.3936 18.408 16.1056 18.312C15.8336 18.232 15.5696 18.112 15.3136 17.952C15.0736 17.792 14.8576 17.6 14.6656 17.376C14.4896 17.152 14.3696 16.896 14.3056 16.608C14.3056 16.16 14.3136 15.792 14.3296 15.504C14.3616 15.216 14.4176 14.904 14.4976 14.568C14.6416 13.96 14.8496 13.272 15.1216 12.504C15.4096 11.736 15.7376 10.984 16.1056 10.248C16.4736 9.496 16.8816 8.8 17.3296 8.16C17.7936 7.504 18.2816 6.992 18.7936 6.624C18.9376 6.624 19.1056 6.64 19.2976 6.672C19.4896 6.688 19.6816 6.728 19.8736 6.792C20.0816 6.856 20.2736 6.936 20.4496 7.032C20.6416 7.112 20.8016 7.224 20.9296 7.368C20.7856 7.528 20.4176 8.064 19.8256 8.976C19.2496 9.888 18.6016 11.2 17.8816 12.912C17.8016 13.088 17.7056 13.344 17.5936 13.68C17.4816 14.016 17.3696 14.368 17.2576 14.736C17.1456 15.104 17.0496 15.464 16.9696 15.816C16.9056 16.168 16.8736 16.448 16.8736 16.656C16.8736 16.784 16.8896 16.88 16.9216 16.944C16.9696 17.008 17.0096 17.056 17.0416 17.088C17.2816 16.992 17.5856 16.728 17.9536 16.296C18.3216 15.864 18.8336 15.2 19.4896 14.304C19.6496 14.08 19.8336 13.824 20.0416 13.536C20.2656 13.248 20.4896 12.944 20.7136 12.624C20.9376 12.288 21.1456 11.944 21.3376 11.592C21.5456 11.24 21.7136 10.888 21.8416 10.536C21.9056 10.344 21.9856 10.12 22.0816 9.864C22.1936 9.592 22.3216 9.312 22.4656 9.024C22.6256 8.736 22.8016 8.448 22.9936 8.16C23.2016 7.856 23.4416 7.576 23.7136 7.32C23.9216 7.32 24.1456 7.344 24.3856 7.392C24.6256 7.44 24.8496 7.504 25.0576 7.584C25.2816 7.648 25.4736 7.728 25.6336 7.824C25.7936 7.904 25.9136 7.992 25.9936 8.088C25.7056 8.792 25.3856 9.488 25.0336 10.176C24.6816 10.864 24.3536 11.544 24.0496 12.216C23.7456 12.872 23.4896 13.528 23.2816 14.184C23.0736 14.84 22.9696 15.48 22.9696 16.104C22.9696 16.44 22.9936 16.736 23.0416 16.992C23.1056 17.232 23.1696 17.44 23.2336 17.616C23.2976 17.776 23.3536 17.912 23.4016 18.024C23.4656 18.136 23.4976 18.232 23.4976 18.312C23.4976 18.328 23.4816 18.352 23.4496 18.384C23.4336 18.4 23.4176 18.408 23.4016 18.408C23.2896 18.408 23.1456 18.384 22.9696 18.336C22.7936 18.288 22.5936 18.216 22.3696 18.12C22.1616 18.04 21.9456 17.944 21.7216 17.832C21.5136 17.72 21.3136 17.6 21.1216 17.472ZM30.341 6.36C30.757 6.488 31.149 6.776 31.517 7.224C31.885 7.656 32.157 8.136 32.333 8.664C32.157 9.096 31.885 9.616 31.517 10.224C31.149 10.832 30.781 11.456 30.413 12.096C30.045 12.72 29.709 13.32 29.405 13.896C29.117 14.456 28.949 14.92 28.901 15.288C29.157 15.016 29.437 14.704 29.741 14.352C30.061 13.984 30.365 13.624 30.653 13.272C30.957 12.904 31.237 12.576 31.493 12.288C31.749 11.984 31.949 11.76 32.093 11.616C32.397 11.296 32.757 10.928 33.173 10.512C33.589 10.08 34.021 9.68 34.469 9.312C34.933 8.928 35.397 8.608 35.861 8.352C36.325 8.08 36.749 7.944 37.133 7.944C37.549 7.944 37.893 8.088 38.165 8.376C38.453 8.648 38.677 8.936 38.837 9.24C38.837 9.272 38.773 9.32 38.645 9.384C38.533 9.432 38.365 9.584 38.141 9.84C37.917 10.128 37.661 10.528 37.373 11.04C37.101 11.536 36.829 12.08 36.557 12.672C36.301 13.248 36.085 13.84 35.909 14.448C35.733 15.056 35.645 15.608 35.645 16.104C35.645 16.504 35.693 16.76 35.789 16.872C35.901 16.984 36.053 17.04 36.245 17.04C36.421 17.04 36.605 17 36.797 16.92C36.989 16.84 37.141 16.8 37.253 16.8C37.317 16.832 37.365 16.904 37.397 17.016C37.445 17.112 37.469 17.2 37.469 17.28C37.341 17.392 37.189 17.504 37.013 17.616C36.837 17.728 36.653 17.832 36.461 17.928C36.269 18.024 36.077 18.104 35.885 18.168C35.709 18.232 35.549 18.264 35.405 18.264C34.941 18.264 34.557 18.192 34.253 18.048C33.965 17.92 33.733 17.744 33.557 17.52C33.397 17.296 33.285 17.032 33.221 16.728C33.157 16.408 33.125 16.072 33.125 15.72C33.125 15.528 33.141 15.312 33.173 15.072C33.205 14.832 33.269 14.552 33.365 14.232C33.461 13.896 33.597 13.504 33.773 13.056C33.949 12.592 34.173 12.04 34.445 11.4C34.413 11.4 34.197 11.512 33.797 11.736C33.397 11.96 32.965 12.304 32.501 12.768C31.749 13.488 31.069 14.2 30.461 14.904C29.869 15.608 29.261 16.392 28.637 17.256C28.285 17.752 27.973 18.168 27.701 18.504C27.445 18.856 27.221 19.088 27.029 19.2C26.693 19.008 26.445 18.736 26.285 18.384C26.125 18.048 26.005 17.696 25.925 17.328C25.925 17.024 25.965 16.64 26.045 16.176C26.141 15.712 26.261 15.2 26.405 14.64C26.565 14.064 26.757 13.464 26.981 12.84C27.205 12.216 27.453 11.592 27.725 10.968C28.333 9.56 28.885 8.456 29.381 7.656C29.893 6.856 30.213 6.424 30.341 6.36ZM39.4379 16.392C39.4379 16.248 39.4459 16.072 39.4619 15.864C39.4939 15.64 39.5419 15.352 39.6059 15C39.6699 14.632 39.7499 14.192 39.8459 13.68C39.9579 13.168 40.0939 12.552 40.2539 11.832C40.2859 11.672 40.3579 11.416 40.4699 11.064C40.5819 10.712 40.7259 10.344 40.9019 9.96C41.0939 9.56 41.3179 9.176 41.5739 8.808C41.8459 8.44 42.1659 8.168 42.5339 7.992C42.8059 8.056 43.1659 8.224 43.6139 8.496C44.0619 8.752 44.4459 9.112 44.7659 9.576C44.3979 9.992 44.0859 10.408 43.8299 10.824C43.5899 11.24 43.3659 11.672 43.1579 12.12C42.9659 12.568 42.7819 13.032 42.6059 13.512C42.4459 13.992 42.2619 14.496 42.0539 15.024C41.8779 15.472 41.7179 15.936 41.5739 16.416C41.4299 16.88 41.3499 17.288 41.3339 17.64C41.3339 17.928 41.3259 18.128 41.3099 18.24C41.3099 18.368 41.2699 18.432 41.1899 18.432C41.1259 18.432 40.9979 18.392 40.8059 18.312C40.6139 18.232 40.4139 18.112 40.2059 17.952C40.0139 17.776 39.8379 17.56 39.6779 17.304C39.5179 17.048 39.4379 16.744 39.4379 16.392ZM44.0219 5.976C44.0219 5.88 44.0459 5.736 44.0939 5.544C44.0139 5.464 43.9419 5.344 43.8779 5.184C43.8299 5.024 43.8059 4.88 43.8059 4.752C43.8059 4.608 43.8219 4.416 43.8539 4.176C43.9019 3.92 43.9579 3.648 44.0219 3.36C44.0859 3.072 44.1659 2.776 44.2619 2.472C44.3579 2.152 44.4539 1.864 44.5499 1.608C44.7419 1.608 44.9739 1.664 45.2459 1.776C45.5339 1.872 45.8219 2.008 46.1099 2.184C46.3979 2.344 46.6619 2.528 46.9019 2.736C47.1419 2.928 47.3259 3.112 47.4539 3.288C47.2779 3.464 47.0459 3.712 46.7579 4.032C46.4699 4.336 46.1899 4.664 45.9179 5.016C45.6459 5.352 45.3979 5.672 45.1739 5.976C44.9499 6.28 44.8059 6.496 44.7419 6.624C44.5499 6.592 44.3819 6.512 44.2379 6.384C44.0939 6.24 44.0219 6.104 44.0219 5.976Z" fill="black"/>
</svg>
