<svg width="60" height="22" viewBox="0 0 60 22" fill="none" xmlns="http://www.w3.org/2000/svg">
<path d="M16.3415 3.824C16.3895 4.096 16.4215 4.288 16.4375 4.4C16.4695 4.496 16.4855 4.632 16.4855 4.808C16.4855 5.336 16.3655 5.832 16.1255 6.296C15.9015 6.744 15.5895 7.064 15.1895 7.256C14.8695 6.824 14.4775 6.456 14.0135 6.152C13.5495 5.832 13.0375 5.576 12.4775 5.384C11.9335 5.176 11.3655 5.024 10.7735 4.928C10.1815 4.832 9.60553 4.784 9.04553 4.784C8.48553 4.784 7.95753 4.832 7.46153 4.928C6.98153 5.008 6.54953 5.128 6.16553 5.288C5.79753 5.432 5.50153 5.616 5.27753 5.84C5.06953 6.064 4.96553 6.32 4.96553 6.608C5.01353 6.96 5.22953 7.32 5.61353 7.688C5.99753 8.04 6.46953 8.392 7.02953 8.744C7.58953 9.08 8.20553 9.416 8.87753 9.752C9.56553 10.088 10.2375 10.408 10.8935 10.712C11.7095 11.096 12.4135 11.456 13.0055 11.792C13.5975 12.112 14.0855 12.472 14.4695 12.872C14.8535 13.256 15.1415 13.696 15.3335 14.192C15.5255 14.688 15.6215 15.288 15.6215 15.992C15.6215 16.808 15.4855 17.576 15.2135 18.296C14.9415 19 14.5415 19.616 14.0135 20.144C13.5015 20.672 12.8775 21.08 12.1415 21.368C11.4055 21.672 10.5815 21.824 9.66953 21.824C8.77353 21.824 7.80553 21.688 6.76553 21.416C5.72553 21.144 4.74953 20.768 3.83753 20.288C2.94153 19.824 2.18953 19.288 1.58153 18.68C0.989531 18.056 0.693531 17.4 0.693531 16.712C0.693531 16.392 0.781531 15.984 0.957531 15.488C1.14953 14.992 1.48553 14.472 1.96553 13.928C2.01353 14.408 2.26953 14.976 2.73353 15.632C3.21353 16.288 3.92553 16.896 4.86953 17.456C5.74953 17.968 6.65353 18.344 7.58153 18.584C8.52553 18.808 9.40553 18.92 10.2215 18.92C11.1175 18.92 11.8455 18.808 12.4055 18.584C12.9655 18.36 13.4055 18.096 13.7255 17.792C14.0455 17.472 14.2695 17.152 14.3975 16.832C14.5255 16.512 14.5975 16.256 14.6135 16.064C14.5975 15.744 14.4455 15.44 14.1575 15.152C13.8855 14.848 13.5095 14.56 13.0295 14.288C12.5655 14 12.0215 13.712 11.3975 13.424C10.7735 13.136 10.1255 12.848 9.45353 12.56C8.44553 12.112 7.57353 11.696 6.83753 11.312C6.11753 10.912 5.51753 10.512 5.03753 10.112C4.57353 9.696 4.22953 9.264 4.00553 8.816C3.79753 8.368 3.69353 7.856 3.69353 7.28C3.69353 6.384 3.96553 5.536 4.50953 4.736C5.05353 3.936 5.83753 3.328 6.86153 2.912C7.37353 2.688 7.91753 2.528 8.49353 2.432C9.08553 2.336 9.66153 2.288 10.2215 2.288C11.2775 2.288 12.3095 2.432 13.3175 2.72C14.3255 3.008 15.3335 3.376 16.3415 3.824ZM25.7291 10.304C25.8891 10.304 26.0731 10.336 26.2811 10.4C26.5051 10.448 26.7051 10.52 26.8811 10.616C27.0571 10.696 27.2011 10.784 27.3131 10.88C27.4411 10.976 27.5051 11.064 27.5051 11.144C27.1851 11.816 26.8891 12.496 26.6171 13.184C26.3451 13.856 26.1131 14.504 25.9211 15.128C25.7291 15.752 25.5771 16.336 25.4651 16.88C25.3691 17.424 25.3211 17.896 25.3211 18.296C25.3211 18.744 25.3691 19.12 25.4651 19.424C25.5611 19.712 25.7211 19.92 25.9451 20.048C25.7531 20.176 25.5051 20.28 25.2011 20.36C24.8971 20.44 24.6251 20.48 24.3851 20.48C23.5211 20.48 23.0891 19.888 23.0891 18.704C23.0891 17.792 23.3931 16.544 24.0011 14.96C23.6811 15.696 23.3131 16.392 22.8971 17.048C22.4811 17.688 22.0571 18.256 21.6251 18.752C21.1931 19.248 20.7531 19.656 20.3051 19.976C19.8731 20.28 19.4731 20.464 19.1051 20.528C18.5131 20.496 18.0331 20.216 17.6651 19.688C17.2971 19.144 17.1131 18.456 17.1131 17.624C17.1131 16.728 17.3051 15.784 17.6891 14.792C18.0731 13.8 18.5611 12.88 19.1531 12.032C19.7611 11.184 20.4171 10.48 21.1211 9.92C21.8251 9.344 22.5051 9.04 23.1611 9.008C23.3211 9.056 23.4971 9.152 23.6891 9.296C23.8971 9.44 24.0891 9.608 24.2651 9.8C24.4571 9.992 24.6171 10.192 24.7451 10.4C24.8731 10.592 24.9451 10.76 24.9611 10.904C24.3211 11 23.6571 11.312 22.9691 11.84C22.2971 12.368 21.6811 13.008 21.1211 13.76C20.5771 14.496 20.1291 15.288 19.7771 16.136C19.4251 16.984 19.2491 17.776 19.2491 18.512C19.2491 18.816 19.3611 19.008 19.5851 19.088C20.0491 18.992 20.5851 18.6 21.1931 17.912C21.8011 17.208 22.5371 16.128 23.4011 14.672C23.5611 14.384 23.7371 14.064 23.9291 13.712C24.1371 13.36 24.3451 12.992 24.5531 12.608C24.7611 12.224 24.9611 11.84 25.1531 11.456C25.3611 11.056 25.5531 10.672 25.7291 10.304ZM30.743 20.168C31.479 19.672 32.199 19.04 32.903 18.272C33.607 17.488 34.247 16.648 34.823 15.752C35.399 14.84 35.887 13.896 36.287 12.92C36.687 11.944 36.959 11.008 37.103 10.112C37.103 9.92 36.999 9.792 36.791 9.728C36.567 9.728 36.255 9.928 35.855 10.328C35.471 10.712 35.039 11.208 34.559 11.816C34.095 12.424 33.615 13.104 33.119 13.856C32.639 14.608 32.199 15.36 31.799 16.112C31.399 16.848 31.055 17.544 30.767 18.2C30.495 18.84 30.343 19.36 30.311 19.76C30.151 19.76 30.015 19.6 29.903 19.28C29.871 19.2 29.815 19.12 29.735 19.04C29.655 18.944 29.527 18.832 29.351 18.704C29.271 18.64 29.191 18.568 29.111 18.488C29.031 18.392 28.975 18.312 28.943 18.248C28.879 18.12 28.847 17.912 28.847 17.624C28.847 16.68 28.967 15.616 29.207 14.432C29.447 13.248 29.759 12.04 30.143 10.808C30.543 9.576 31.007 8.368 31.535 7.184C32.063 5.984 32.607 4.888 33.167 3.896C33.743 2.904 34.319 2.064 34.895 1.376C35.471 0.687999 36.015 0.231998 36.527 0.00799847C36.687 0.0559988 36.879 0.135999 37.103 0.248C37.327 0.359999 37.551 0.487999 37.775 0.631999C37.999 0.775999 38.207 0.919999 38.399 1.064C38.607 1.208 38.759 1.336 38.855 1.448C37.095 2.872 35.567 4.704 34.271 6.944C32.991 9.168 31.943 11.8 31.127 14.84C31.575 14.008 32.079 13.208 32.639 12.44C33.199 11.656 33.751 10.968 34.295 10.376C34.855 9.784 35.383 9.312 35.879 8.96C36.391 8.608 36.815 8.432 37.151 8.432C37.407 8.496 37.655 8.608 37.895 8.768C38.135 8.928 38.351 9.128 38.543 9.368C38.735 9.592 38.895 9.84 39.023 10.112C39.151 10.368 39.231 10.64 39.263 10.928C39.247 11.6 39.127 12.32 38.903 13.088C38.695 13.84 38.407 14.584 38.039 15.32C37.687 16.056 37.279 16.76 36.815 17.432C36.367 18.104 35.887 18.696 35.375 19.208C34.879 19.704 34.375 20.104 33.863 20.408C33.367 20.712 32.895 20.864 32.447 20.864C32.255 20.864 32.055 20.84 31.847 20.792C31.655 20.76 31.471 20.704 31.295 20.624C31.135 20.56 30.999 20.488 30.887 20.408C30.791 20.328 30.743 20.248 30.743 20.168ZM41.1776 10.808C41.0976 10.712 41.0256 10.512 40.9616 10.208C40.8976 9.888 40.8656 9.616 40.8656 9.392C41.2816 9.424 41.6816 9.456 42.0656 9.488C42.4496 9.504 42.8016 9.52 43.1216 9.536C43.3616 9.056 43.6176 8.584 43.8896 8.12C44.1776 7.64 44.4496 7.208 44.7056 6.824C44.9776 6.424 45.2256 6.088 45.4496 5.816C45.6896 5.544 45.8736 5.368 46.0016 5.288C46.1616 5.288 46.3616 5.32 46.6016 5.384C46.8576 5.432 47.1136 5.504 47.3696 5.6C47.6256 5.68 47.8576 5.768 48.0656 5.864C48.2736 5.96 48.4176 6.056 48.4976 6.152C48.0176 6.76 47.6016 7.328 47.2496 7.856C46.9136 8.368 46.5456 8.96 46.1456 9.632C46.4656 9.632 46.7856 9.624 47.1056 9.608C47.4416 9.592 47.7776 9.568 48.1136 9.536C48.1936 9.616 48.2576 9.72 48.3056 9.848C48.3536 9.96 48.3776 10.08 48.3776 10.208C47.5936 10.496 46.6416 10.656 45.5216 10.688C45.1216 11.456 44.7616 12.224 44.4416 12.992C44.1376 13.744 43.8736 14.472 43.6496 15.176C43.4416 15.88 43.2736 16.544 43.1456 17.168C43.0336 17.792 42.9776 18.352 42.9776 18.848C42.9776 19.552 43.2416 19.944 43.7696 20.024C44.2496 19.96 44.7056 19.84 45.1376 19.664C45.5696 19.488 45.9536 19.264 46.2896 18.992C46.3856 19.136 46.4416 19.256 46.4576 19.352C46.3616 19.496 46.1936 19.664 45.9536 19.856C45.7296 20.048 45.4816 20.232 45.2096 20.408C44.9376 20.6 44.6736 20.76 44.4176 20.888C44.1616 21.016 43.9696 21.088 43.8416 21.104C43.4416 21.088 43.0416 21 42.6416 20.84C42.2416 20.68 41.8736 20.48 41.5376 20.24C41.2176 20 40.9536 19.736 40.7456 19.448C40.5376 19.144 40.4336 18.848 40.4336 18.56C40.4336 18.176 40.4816 17.696 40.5776 17.12C40.6896 16.528 40.8416 15.888 41.0336 15.2C41.2256 14.512 41.4496 13.792 41.7056 13.04C41.9616 12.288 42.2416 11.544 42.5456 10.808H41.1776ZM54.7271 19.472C54.4231 19.216 54.2151 18.896 54.1031 18.512C54.0071 18.128 53.9591 17.8 53.9591 17.528C53.9591 17.192 53.9991 16.904 54.0791 16.664C54.0151 16.664 53.8711 16.792 53.6471 17.048C53.4231 17.304 53.1751 17.608 52.9031 17.96C52.6471 18.312 52.3911 18.656 52.1351 18.992C51.8791 19.328 51.6871 19.576 51.5591 19.736C51.3511 19.96 51.1511 20.136 50.9591 20.264C50.7831 20.392 50.6391 20.464 50.5271 20.48C50.2711 20.464 49.9991 20.408 49.7111 20.312C49.4391 20.232 49.1751 20.112 48.9191 19.952C48.6791 19.792 48.4631 19.6 48.2711 19.376C48.0951 19.152 47.9751 18.896 47.9111 18.608C47.9111 18.16 47.9191 17.792 47.9351 17.504C47.9671 17.216 48.0231 16.904 48.1031 16.568C48.2471 15.96 48.4551 15.272 48.7271 14.504C49.0151 13.736 49.3431 12.984 49.7111 12.248C50.0791 11.496 50.4871 10.8 50.9351 10.16C51.3991 9.504 51.8871 8.992 52.3991 8.624C52.5431 8.624 52.7111 8.64 52.9031 8.672C53.0951 8.688 53.2871 8.728 53.4791 8.792C53.6871 8.856 53.8791 8.936 54.0551 9.032C54.2471 9.112 54.4071 9.224 54.5351 9.368C54.3911 9.528 54.0231 10.064 53.4311 10.976C52.8551 11.888 52.2071 13.2 51.4871 14.912C51.4071 15.088 51.3111 15.344 51.1991 15.68C51.0871 16.016 50.9751 16.368 50.8631 16.736C50.7511 17.104 50.6551 17.464 50.5751 17.816C50.5111 18.168 50.4791 18.448 50.4791 18.656C50.4791 18.784 50.4951 18.88 50.5271 18.944C50.5751 19.008 50.6151 19.056 50.6471 19.088C50.8871 18.992 51.1911 18.728 51.5591 18.296C51.9271 17.864 52.4391 17.2 53.0951 16.304C53.2551 16.08 53.4391 15.824 53.6471 15.536C53.8711 15.248 54.0951 14.944 54.3191 14.624C54.5431 14.288 54.7511 13.944 54.9431 13.592C55.1511 13.24 55.3191 12.888 55.4471 12.536C55.5111 12.344 55.5911 12.12 55.6871 11.864C55.7991 11.592 55.9271 11.312 56.0711 11.024C56.2311 10.736 56.4071 10.448 56.5991 10.16C56.8071 9.856 57.0471 9.576 57.3191 9.32C57.5271 9.32 57.7511 9.344 57.9911 9.392C58.2311 9.44 58.4551 9.504 58.6631 9.584C58.8871 9.648 59.0791 9.728 59.2391 9.824C59.3991 9.904 59.5191 9.992 59.5991 10.088C59.3111 10.792 58.9911 11.488 58.6391 12.176C58.2871 12.864 57.9591 13.544 57.6551 14.216C57.3511 14.872 57.0951 15.528 56.8871 16.184C56.6791 16.84 56.5751 17.48 56.5751 18.104C56.5751 18.44 56.5991 18.736 56.6471 18.992C56.7111 19.232 56.7751 19.44 56.8391 19.616C56.9031 19.776 56.9591 19.912 57.0071 20.024C57.0711 20.136 57.1031 20.232 57.1031 20.312C57.1031 20.328 57.0871 20.352 57.0551 20.384C57.0391 20.4 57.0231 20.408 57.0071 20.408C56.8951 20.408 56.7511 20.384 56.5751 20.336C56.3991 20.288 56.1991 20.216 55.9751 20.12C55.7671 20.04 55.5511 19.944 55.3271 19.832C55.1191 19.72 54.9191 19.6 54.7271 19.472Z" fill="black"/>
</svg>
